<svg width="384" height="384" xmlns="http://www.w3.org/2000/svg" xmlns:xlink="http://www.w3.org/1999/xlink" xml:space="preserve" overflow="hidden"><g transform="translate(-315 -168)"><path d="M136 96 160 96 160 156 136 156Z" fill="#7093D2" transform="matrix(-1 0 0 1 699 168)"/><path d="M264 172 120 172 120 80 264 80 264 172ZM192 276C170 276 152 258 152 236 152 214 170 196 192 196 214 196 232 214 232 236 232 258 214 276 192 276ZM312 56 264 56 120 56 96 56 56 96 56 312C56 320.8 63.2 328 72 328L312 328C320.8 328 328 320.8 328 312L328 72C328 63.2 320.8 56 312 56Z" fill="#7093D2" transform="matrix(-1 0 0 1 699 168)"/><path d="M180 224 204 224 204 248 180 248Z" fill="#7093D2" transform="matrix(-1 0 0 1 699 168)"/></g></svg>