<svg width="96" height="96" xmlns="http://www.w3.org/2000/svg" xmlns:xlink="http://www.w3.org/1999/xlink" xml:space="preserve" overflow="hidden"><g transform="translate(-612 -388)"><path d="M683 436C683 437.657 681.657 439 680 439L647.24 439 656.12 447.88C657.25 449.092 657.182 450.991 655.97 452.12 654.818 453.194 653.032 453.194 651.88 452.12L637.88 438.12C636.71 436.949 636.71 435.051 637.88 433.88L651.88 419.88C653.092 418.75 654.99 418.818 656.12 420.03 657.194 421.182 657.194 422.968 656.12 424.12L647.24 433 680 433C681.657 433 683 434.343 683 436Z" fill="#D9D9D9"/><path d="M622 436C622 456.987 639.013 474 660 474 680.987 474 698 456.987 698 436 698 415.013 680.987 398 660 398 639.013 398 622 415.013 622 436ZM628 436C628 418.327 642.327 404 660 404 677.673 404 692 418.327 692 436 692 453.673 677.673 468 660 468 642.327 468 628 453.673 628 436Z" fill="#D9D9D9"/></g></svg>